Coordinates
version=1
nRows=17
nColumns=40
inDegrees=yes
endheader
time	pelvis_tilt	pelvis_list	pelvis_rotation	pelvis_tx	pelvis_ty	pelvis_tz	hip_flexion_r	hip_adduction_r	hip_rotation_r	knee_angle_r	knee_angle_r_beta	ankle_angle_r	subtalar_angle_r	mtp_angle_r	hip_flexion_l	hip_adduction_l	hip_rotation_l	knee_angle_l	knee_angle_l_beta	ankle_angle_l	subtalar_angle_l	mtp_angle_l	lumbar_extension	lumbar_bending	lumbar_rotation	arm_flex_r	arm_add_r	arm_rot_r	elbow_flex_r	pro_sup_r	wrist_flex_r	wrist_dev_r	arm_flex_l	arm_add_l	arm_rot_l	elbow_flex_l	pro_sup_l	wrist_flex_l	wrist_dev_l
1760624959.28600001	     -0.00148479	     -0.88309940	      3.32758669	     -0.04127292	      0.95942062	     -0.01130742	     80.00000000	     -7.00000000	      0.00000000	     80.00000000	      1.39626340	      0.00000000	      0.00000000	      0.00000000	     80.00000000	     -7.00000000	      0.00000000	     80.00000000	      1.39626340	      0.00000000	      0.00000000	      0.00000000	      2.60929280	     -1.29119442	      5.87766261	      2.59417119	    -16.43839273	    -18.69160563	     84.76030921	    155.04754329	      7.05477779	     29.36678907	      6.32952963	     -7.82198336	     -9.73547467	     76.44297216	    117.99091400	      5.75243658	      9.71198337
1760624959.31999993	     -0.00936676	     -0.87984830	      3.33089876	     -0.03834576	      0.95870459	     -0.01113420	     80.00000000	     -7.00000000	      0.00000000	     80.00000000	      1.39626340	      0.00000000	      0.00000000	      0.00000000	     80.00000000	     -7.00000000	      0.00000000	     80.00000000	      1.39626340	      0.00000000	      0.00000000	      0.00000000	      2.63370978	     -1.37797046	      5.76528507	      2.06588279	    -16.36262286	    -18.54196903	     84.36260656	    154.63613939	      6.22911608	     29.07055724	      6.69918635	     -8.03796186	     -9.73647981	     75.63834534	    117.73236346	      5.60366684	      9.48120472
1760624959.35299993	     -0.01392483	     -0.87249728	      3.32518396	     -0.03768260	      0.95859227	     -0.01127061	     80.00000000	     -7.00000000	      0.00000000	     80.00000000	      1.39626340	      0.00000000	      0.00000000	      0.00000000	     80.00000000	     -7.00000000	      0.00000000	     80.00000000	      1.39626340	      0.00000000	      0.00000000	      0.00000000	      2.58628580	     -1.43096070	      5.64693724	      1.95999721	    -16.31684868	    -18.16987635	     83.73096140	    154.21520253	      5.43982559	     28.94100632	      7.04115757	     -8.23873398	     -9.79277733	     75.02374471	    117.51303392	      5.38875264	      9.10501649
1760624959.38700008	     -0.00708108	     -0.86242257	      3.32086280	     -0.03879008	      0.95917363	     -0.01162625	     80.00000000	     -7.00000000	      0.00000000	     80.00000000	      1.39626340	      0.00000000	      0.00000000	      0.00000000	     80.00000000	     -7.00000000	      0.00000000	     80.00000000	      1.39626340	      0.00000000	      0.00000000	      0.00000000	      2.65223660	     -1.41999368	      5.55477909	      2.33573277	    -16.21273374	    -17.10456846	     82.88113245	    153.82274720	      4.60944217	     29.48571275	      7.24182436	     -8.37141936	     -9.76356000	     74.41281591	    117.06646246	      5.22035940	      8.77786326
1760624959.42000008	     -0.00816573	     -0.85729621	      3.31851772	     -0.03938384	      0.95928676	     -0.01179964	     80.00000000	     -7.00000000	      0.00000000	     80.00000000	      1.39626340	      0.00000000	      0.00000000	      0.00000000	     80.00000000	     -7.00000000	      0.00000000	     80.00000000	      1.39626340	      0.00000000	      0.00000000	      0.00000000	      2.65335869	     -1.39625885	      5.54149742	      2.60883319	    -16.00745438	    -16.76731758	     82.18260846	    153.75781799	      4.13927689	     29.48676768	      7.43056438	     -8.46274194	     -9.64814998	     74.08244605	    116.69398640	      5.17481540	      8.74619432
1760624959.45400000	      0.00313008	     -0.85392118	      3.31070768	     -0.03789499	      0.96002537	     -0.01260323	     80.00000000	     -7.00000000	      0.00000000	     80.00000000	      1.39626340	      0.00000000	      0.00000000	      0.00000000	     80.00000000	     -7.00000000	      0.00000000	     80.00000000	      1.39626340	      0.00000000	      0.00000000	      0.00000000	      2.89410586	     -1.35417967	      5.52769309	      2.56054229	    -15.88037094	    -16.70418960	     81.22937784	    153.79460385	      3.65050175	     29.04849831	      7.46462798	     -8.52199439	     -9.59316261	     73.75915836	    116.60766457	      5.10127307	      8.63471092
1760624959.48699999	      0.00637721	     -0.84401337	      3.31987987	     -0.03562972	      0.96033133	     -0.01273317	     80.00000000	     -7.00000000	      0.00000000	     80.00000000	      1.39626340	      0.00000000	      0.00000000	      0.00000000	     80.00000000	     -7.00000000	      0.00000000	     80.00000000	      1.39626340	      0.00000000	      0.00000000	      0.00000000	      2.97877067	     -1.32949429	      5.44478198	      2.90010899	    -15.76267123	    -16.51972398	     80.51072418	    154.03509507	      3.34121381	     28.87591798	      7.50068356	     -8.58048267	     -9.53654434	     73.59453164	    116.30416982	      5.01830129	      8.48279592
1760624959.51999998	      0.00422406	     -0.83659541	      3.31608786	     -0.03677021	      0.96021072	     -0.01212660	     80.00000000	     -7.00000000	      0.00000000	     80.00000000	      1.39626340	      0.00000000	      0.00000000	      0.00000000	     80.00000000	     -7.00000000	      0.00000000	     80.00000000	      1.39626340	      0.00000000	      0.00000000	      0.00000000	      2.96648777	     -1.33780018	      5.43463365	      3.39135003	    -15.63909436	    -16.51543696	     79.25621467	    154.22535717	      2.73006338	     28.30181308	      7.42198696	     -8.62184948	     -9.45972249	     73.66878832	    116.08069613	      4.94339055	      8.41845671
1760624959.55399990	      0.00341257	     -0.82949924	      3.30694829	     -0.03661953	      0.96037148	     -0.01172668	     80.00000000	     -7.00000000	      0.00000000	     80.00000000	      1.39626340	      0.00000000	      0.00000000	      0.00000000	     80.00000000	     -7.00000000	      0.00000000	     80.00000000	      1.39626340	      0.00000000	      0.00000000	      0.00000000	      3.04547829	     -1.34231833	      5.41235284	      3.83185506	    -15.52025524	    -16.66066226	     78.36240950	    154.40332458	      2.57857903	     27.82590449	      7.28617495	     -8.64619153	     -9.44365661	     73.71997582	    116.05067309	      4.86907499	      8.35297359
1760624959.58699989	      0.00328273	     -0.82702839	      3.29836939	     -0.03603750	      0.96030252	     -0.01161633	     80.00000000	     -7.00000000	      0.00000000	     80.00000000	      1.39626340	      0.00000000	      0.00000000	      0.00000000	     80.00000000	     -7.00000000	      0.00000000	     80.00000000	      1.39626340	      0.00000000	      0.00000000	      0.00000000	      3.04887686	     -1.33589525	      5.40085658	      4.14712452	    -15.60541970	    -16.77369345	     78.16767242	    154.34600689	      2.73120095	     27.71617739	      7.14272500	     -8.69679501	     -9.36652723	     73.79572188	    115.79304076	      4.84082472	      8.30032785
1760624959.62100005	      0.00232404	     -0.82676140	      3.28806433	     -0.03480031	      0.96024010	     -0.01142300	     80.00000000	     -7.00000000	      0.00000000	     80.00000000	      1.39626340	      0.00000000	      0.00000000	      0.00000000	     80.00000000	     -7.00000000	      0.00000000	     80.00000000	      1.39626340	      0.00000000	      0.00000000	      0.00000000	      2.95751137	     -1.34771974	      5.34190345	      4.46681004	    -15.52423339	    -17.24235012	     77.77327181	    154.63684023	      2.91082359	     27.18265303	      7.10391502	     -8.68870756	     -9.42431263	     73.89617071	    115.75717051	      4.81252315	      8.24208522
1760624959.65400004	     -0.00035473	     -0.82886044	      3.27712867	     -0.03391527	      0.96019498	     -0.01149265	     80.00000000	     -7.00000000	      0.00000000	     80.00000000	      1.39626340	      0.00000000	      0.00000000	      0.00000000	     80.00000000	     -7.00000000	      0.00000000	     80.00000000	      1.39626340	      0.00000000	      0.00000000	      0.00000000	      3.00216255	     -1.33692536	      5.32321734	      4.68136083	    -15.55285266	    -17.28570654	     77.73393131	    154.58460176	      3.19250925	     27.24985620	      7.03119173	     -8.71474270	     -9.41775054	     73.90623520	    115.68166178	      4.78171379	      8.18895855
1760624959.68799996	     -0.01267326	     -0.82465378	      3.28508301	     -0.03414017	      0.96053966	     -0.01176705	     80.00000000	     -7.00000000	      0.00000000	     80.00000000	      1.39626340	      0.00000000	      0.00000000	      0.00000000	     80.00000000	     -7.00000000	      0.00000000	     80.00000000	      1.39626340	      0.00000000	      0.00000000	      0.00000000	      2.99702571	     -1.33871525	      5.29080391	      4.93349313	    -15.57478335	    -17.34701548	     77.75240878	    154.61002479	      3.39855584	     27.32384926	      7.02017562	     -8.67640552	     -9.44786469	     73.90688831	    115.75583579	      4.77295045	      8.23001733
1760624959.72099996	     -0.02429644	     -0.82659756	      3.28762423	     -0.03571604	      0.96057481	     -0.01185184	     80.00000000	     -7.00000000	      0.00000000	     80.00000000	      1.39626340	      0.00000000	      0.00000000	      0.00000000	     80.00000000	     -7.00000000	      0.00000000	     80.00000000	      1.39626340	      0.00000000	      0.00000000	      0.00000000	      3.06025706	     -1.32725593	      5.30706480	      5.23676458	    -15.50232906	    -17.35539831	     77.61976378	    154.68173167	      3.65893150	     27.43832656	      6.98010144	     -8.71956595	     -9.38673280	     73.82467561	    115.64417893	      4.74556709	      8.21059175
1760624959.75500011	     -0.03691088	     -0.81749504	      3.30309793	     -0.03711468	      0.96076458	     -0.01130681	     80.00000000	     -7.00000000	      0.00000000	     80.00000000	      1.39626340	      0.00000000	      0.00000000	      0.00000000	     80.00000000	     -7.00000000	      0.00000000	     80.00000000	      1.39626340	      0.00000000	      0.00000000	      0.00000000	      3.01906675	     -1.39644338	      5.31493485	      5.35325650	    -15.47237190	    -17.43198569	     77.55142115	    154.60926757	      3.77818214	     27.46582933	      6.95841651	     -8.75092333	     -9.38663267	     73.85300603	    115.66315567	      4.73033910	      8.19570576
1760624959.78800011	     -0.03620226	     -0.81956281	      3.31144545	     -0.03790853	      0.96064208	     -0.01062973	     80.00000000	     -7.00000000	      0.00000000	     80.00000000	      1.39626340	      0.00000000	      0.00000000	      0.00000000	     80.00000000	     -7.00000000	      0.00000000	     80.00000000	      1.39626340	      0.00000000	      0.00000000	      0.00000000	      2.99130249	     -1.40900718	      5.23500545	      5.73812660	    -15.39055104	    -17.56717124	     77.37644799	    154.74746158	      4.11717820	     27.41010954	      7.02036389	     -8.79740125	     -9.47801890	     73.79840453	    115.70000906	      4.77028235	      8.25490996
1760624959.82200003	     -0.03586072	     -0.81755448	      3.30623207	     -0.03823075	      0.96029139	     -0.01011459	     80.00000000	     -7.00000000	      0.00000000	     80.00000000	      1.39626340	      0.00000000	      0.00000000	      0.00000000	     80.00000000	     -7.00000000	      0.00000000	     80.00000000	      1.39626340	      0.00000000	      0.00000000	      0.00000000	      3.17747036	     -1.46663956	      5.30777304	      5.74789219	    -15.36149772	    -17.61058397	     77.24347041	    154.69943622	      4.27895277	     27.45630310	      6.92200173	     -8.85558190	     -9.40006189	     73.68528424	    115.69218009	      4.76103639	      8.27551068
